<?xml version="1.0" standalone="no"?>
<!DOCTYPE svg PUBLIC "-//W3C//DTD SVG 20010904//EN"
 "http://www.w3.org/TR/2001/REC-SVG-20010904/DTD/svg10.dtd">
<svg version="1.0" xmlns="http://www.w3.org/2000/svg"
 width="940.000000pt" height="940.000000pt" viewBox="0 0 940.000000 940.000000"
 preserveAspectRatio="xMidYMid meet">
<metadata>
Created by potrace 1.14, written by Peter Selinger 2001-2017
</metadata>
<g transform="translate(0.000000,940.000000) scale(0.100000,-0.100000)"
fill="#000000" stroke="none">
<path d="M0 4700 l0 -4700 4700 0 4700 0 0 4700 0 4700 -4700 0 -4700 0 0
-4700z m5080 -1190 c304 -16 599 -55 691 -91 14 -6 35 -23 47 -38 l20 -28 -52
-21 c-28 -12 -58 -22 -65 -22 -8 0 -22 -6 -30 -14 -16 -15 -212 -48 -361 -61
-41 -4 -91 -10 -110 -15 -19 -5 -62 -11 -95 -15 -33 -3 -109 -12 -170 -20 -60
-8 -175 -19 -255 -25 -80 -5 -197 -15 -260 -22 -122 -12 -1429 -17 -1595 -6
-230 16 -437 39 -471 53 -17 7 -51 16 -75 20 -62 11 -118 37 -125 59 -7 21 39
65 69 66 9 0 17 4 17 8 0 5 26 13 58 19 254 51 401 76 482 84 52 5 138 14 190
19 591 61 1465 82 2090 50z"/>
</g>
</svg>
