<?xml version="1.0" standalone="no"?>
<!DOCTYPE svg PUBLIC "-//W3C//DTD SVG 20010904//EN"
 "http://www.w3.org/TR/2001/REC-SVG-20010904/DTD/svg10.dtd">
<svg version="1.0" xmlns="http://www.w3.org/2000/svg"
 width="640.000000pt" height="640.000000pt" viewBox="0 0 640.000000 640.000000"
 preserveAspectRatio="xMidYMid meet">
<metadata>
Created by potrace 1.14, written by Peter Selinger 2001-2017
</metadata>
<g transform="translate(0.000000,640.000000) scale(0.100000,-0.100000)"
fill="#000000" stroke="none">
<path d="M0 5498 l0 -902 43 59 c24 33 79 112 122 175 44 63 127 181 185 261
135 188 243 340 398 564 69 99 156 221 192 270 37 50 120 161 184 249 65 87
120 165 123 172 3 8 10 14 15 14 7 0 8 -31 3 -92 -7 -97 -10 -105 -104 -241
-14 -21 -31 -45 -36 -55 -34 -58 -330 -498 -337 -500 -4 -2 -8 -8 -8 -14 0 -5
-22 -42 -48 -81 -27 -40 -59 -92 -73 -117 -13 -24 -32 -52 -42 -63 -12 -12
-16 -26 -12 -40 4 -14 3 -17 -2 -9 -12 15 -57 -43 -47 -60 5 -7 3 -8 -6 -3 -9
5 -11 1 -6 -16 3 -13 3 -18 0 -11 -7 15 -24 16 -24 1 0 -6 -8 -23 -19 -37 -23
-34 -27 -96 -5 -88 9 3 18 6 20 6 2 0 4 8 4 17 0 15 2 16 15 3 10 -10 29 -14
60 -12 44 4 45 5 45 38 0 19 4 34 8 34 11 0 32 46 32 70 0 10 9 22 20 25 12 4
20 15 20 29 0 37 46 76 87 74 27 -1 40 5 54 23 10 13 19 30 19 37 0 13 29 16
46 4 6 -4 13 -15 17 -24 3 -10 17 -18 29 -19 13 0 50 -13 83 -28 54 -26 60
-27 63 -11 2 9 14 22 28 28 13 7 24 16 24 21 0 5 7 17 16 25 14 15 13 16 -10
16 -14 0 -26 5 -26 10 0 6 11 10 25 10 14 0 25 4 25 9 0 5 18 13 40 19 32 8
40 7 40 -4 0 -9 12 -14 36 -14 40 0 63 21 64 58 0 17 6 22 25 22 13 0 36 5 50
12 19 9 31 9 44 1 13 -8 23 -7 41 2 12 7 31 10 42 7 10 -2 18 0 18 4 0 5 14
15 30 22 19 9 32 24 36 40 14 61 67 63 80 4 6 -28 9 -32 11 -16 5 24 39 34
132 37 36 1 56 7 59 16 6 19 57 71 69 71 14 0 35 44 32 66 -3 22 21 104 30
102 3 -1 14 2 24 7 13 5 15 11 6 21 -6 7 -7 19 -3 26 5 7 10 24 12 38 2 14 9
34 17 46 20 30 30 94 16 94 -7 0 -9 5 -6 10 4 6 10 8 14 5 5 -2 17 11 27 30
10 19 24 35 32 35 7 0 15 6 18 14 3 8 13 16 23 19 13 3 20 18 24 55 6 55 24
92 45 92 7 0 17 11 22 24 5 13 15 26 22 29 8 3 9 6 1 6 -7 1 -9 15 -6 41 l6
40 -346 0 -347 0 -15 -23 c-8 -13 -16 -35 -17 -50 -1 -15 -6 -27 -11 -27 -9 0
-5 34 8 78 6 19 4 22 -19 22 -22 0 -26 -4 -26 -29 0 -24 -12 -38 -75 -85 -42
-31 -83 -60 -93 -63 -9 -4 -21 -11 -25 -17 -9 -11 0 144 9 177 5 16 -33 17
-705 17 l-711 0 0 -902z m1341 722 c-7 -38 -9 -40 -10 -14 -1 41 12 107 16 79
2 -11 -1 -40 -6 -65z m452 8 c-3 -35 -10 -64 -14 -66 -5 -2 -9 -16 -10 -30 0
-15 -3 -21 -6 -14 -3 8 0 41 6 75 22 115 32 130 24 35z m-435 -834 c-5 -25
-35 -41 -49 -27 -9 9 -9 16 1 28 17 21 52 20 48 -1z"/>
<path d="M1448 6365 c-2 -19 0 -35 4 -35 16 0 8 -19 -11 -25 -11 -3 -22 -12
-25 -20 -11 -30 14 -24 62 14 36 29 51 48 54 70 4 30 4 31 -38 31 -40 0 -42
-1 -46 -35z"/>
<path d="M1546 6384 c-10 -25 -7 -34 9 -34 8 0 15 4 15 9 0 5 3 16 6 25 4 10
1 16 -9 16 -8 0 -18 -7 -21 -16z"/>
<path d="M2765 6390 c-4 -6 7 -10 24 -10 17 0 31 5 31 10 0 6 -11 10 -24 10
-14 0 -28 -4 -31 -10z"/>
<path d="M3680 6391 c0 -5 36 -36 80 -70 43 -34 96 -82 116 -106 21 -26 62
-59 97 -78 75 -39 164 -121 207 -188 22 -33 56 -65 104 -97 79 -54 170 -154
184 -204 6 -18 35 -59 65 -90 69 -72 97 -128 97 -195 0 -37 5 -55 19 -67 63
-57 78 -166 46 -332 -19 -101 -26 -77 58 -219 42 -73 102 -135 129 -135 4 0 8
-6 8 -14 0 -16 37 -28 46 -15 3 5 12 9 21 9 14 0 14 -2 -1 -19 -15 -16 -15
-20 -1 -31 8 -7 22 -10 30 -6 9 3 15 0 15 -9 0 -8 -5 -15 -12 -15 -9 0 -8 -3
1 -12 11 -10 14 -10 18 0 5 14 33 17 33 3 0 -5 -10 -11 -22 -14 -20 -6 -20 -7
10 -35 18 -17 32 -35 32 -42 0 -6 11 -10 28 -8 15 2 27 -1 27 -7 0 -5 -3 -9
-7 -7 -17 5 -6 -25 22 -62 17 -22 30 -46 30 -53 0 -7 6 -13 14 -13 8 0 17 -11
20 -25 4 -14 11 -25 16 -25 6 0 10 -7 10 -15 0 -8 7 -15 16 -15 9 0 12 -5 8
-12 -4 -6 0 -16 8 -22 8 -6 23 -27 34 -46 10 -19 27 -43 37 -54 9 -11 17 -26
17 -34 0 -9 7 -13 18 -10 15 4 18 1 15 -16 -3 -13 2 -28 11 -35 9 -8 16 -20
16 -27 0 -8 5 -14 11 -14 6 0 8 -9 4 -21 -4 -12 -3 -24 1 -28 16 -11 44 -73
38 -82 -3 -6 2 -22 12 -37 12 -18 17 -43 15 -82 -3 -66 37 -196 76 -248 28
-37 42 -105 24 -116 -6 -4 -11 -15 -11 -25 0 -10 -11 -23 -25 -29 -16 -7 -23
-17 -19 -27 3 -8 2 -15 -4 -15 -14 0 -23 -57 -12 -85 8 -20 5 -29 -19 -52 -26
-27 -28 -35 -35 -138 -3 -61 -8 -128 -11 -150 -2 -22 -7 -69 -10 -104 -8 -73
-13 -91 -27 -91 -5 0 -21 -14 -35 -30 -13 -17 -29 -28 -34 -24 -5 3 -9 72 -9
154 0 81 -5 194 -10 250 -14 133 -55 364 -74 415 -43 117 -283 560 -316 585
-4 3 -14 19 -23 35 -9 17 -32 48 -52 70 -19 22 -35 43 -35 46 0 3 -10 17 -22
31 -13 13 -34 38 -48 55 -39 47 -173 194 -193 212 -10 9 -31 26 -45 39 -15 13
-75 64 -134 113 -108 92 -122 108 -112 133 5 12 11 13 29 4 19 -9 30 -7 50 6
24 16 29 30 26 68 -2 12 3 16 13 12 9 -4 16 -1 16 6 0 16 62 9 164 -19 88 -23
96 -24 96 -13 0 11 -120 60 -149 61 -32 0 -172 20 -181 26 -5 3 -20 1 -32 -6
-35 -19 -91 -29 -103 -19 -6 5 -41 12 -78 16 -63 6 -70 5 -93 -17 -75 -70
-129 -264 -93 -331 6 -11 10 -63 10 -114 l-1 -94 -49 -45 c-66 -62 -94 -128
-88 -209 6 -85 22 -135 50 -162 20 -18 25 -35 30 -103 l6 -80 -65 -68 c-125
-129 -181 -230 -200 -360 -8 -52 -21 -110 -29 -129 -8 -19 -12 -41 -9 -49 7
-17 -42 -191 -62 -222 -8 -12 -14 -42 -14 -67 0 -24 -12 -86 -26 -137 -14 -52
-28 -107 -31 -124 -3 -16 -16 -40 -28 -52 -26 -25 -27 -28 -90 -258 -95 -346
-86 -327 -178 -419 -84 -83 -145 -136 -94 -80 15 17 27 33 27 35 0 3 -25 11
-55 18 -30 7 -59 20 -65 29 -5 10 -10 12 -10 5 0 -9 -22 -13 -75 -13 -71 0
-75 1 -76 23 l0 22 -11 -22 c-8 -17 -25 -24 -82 -33 -39 -6 -106 -24 -149 -40
-66 -24 -79 -26 -84 -13 -4 10 -11 2 -22 -23 l-17 -38 -22 45 c-15 32 -38 55
-78 82 -31 20 -53 37 -48 37 5 0 -6 13 -24 29 -17 17 -32 39 -32 51 0 20 -2
19 -26 -9 -14 -17 -33 -31 -42 -31 -8 0 -23 -6 -31 -14 -9 -7 -46 -23 -83 -35
-50 -17 -76 -32 -102 -62 -20 -21 -36 -43 -36 -48 0 -5 -18 -32 -40 -60 -31
-39 -48 -51 -77 -56 -29 -5 -50 -20 -89 -63 l-51 -56 -204 22 c-112 13 -258
29 -324 37 -66 8 -208 24 -315 35 -220 24 -229 25 -212 42 7 7 12 33 12 58 0
39 -6 52 -35 84 -19 21 -35 49 -35 62 0 12 -4 26 -10 29 -5 3 -10 17 -10 31 0
34 -27 84 -45 84 -8 0 -15 9 -15 20 0 13 -5 18 -15 14 -12 -5 -12 0 -5 28 13
42 13 41 -4 35 -12 -5 -14 7 -11 61 2 37 8 82 13 99 9 28 -2 146 -18 198 -7
20 24 96 42 106 10 5 18 15 18 22 0 14 -45 37 -74 37 -19 0 -19 0 0 21 15 16
16 24 6 39 -7 11 -12 26 -12 35 0 17 -36 39 -50 30 -9 -6 -15 25 -12 65 0 8
-3 34 -9 58 -8 36 -6 49 12 84 20 40 21 47 10 123 -7 44 -16 107 -21 140 -14
97 -85 640 -100 765 -5 41 -16 129 -25 195 -9 66 -20 165 -26 220 -11 115 -26
178 -40 173 -6 -2 -20 -21 -32 -43 -12 -22 -25 -42 -28 -45 -3 -3 -24 -31 -47
-62 l-42 -57 0 -2146 0 -2145 3200 0 3200 0 0 1079 0 1080 -30 -9 c-16 -5 -32
-5 -35 0 -6 10 -187 737 -254 1020 -27 118 -82 349 -121 514 -39 164 -69 301
-66 303 2 3 116 -52 252 -121 136 -69 248 -126 250 -126 2 0 4 599 4 1330 l0
1330 -1360 0 c-771 0 -1360 -4 -1360 -9z m2488 -1641 c24 0 9 -17 -80 -90 -50
-41 -123 -103 -163 -137 -40 -35 -75 -63 -78 -63 -3 0 8 25 26 56 19 33 64 86
110 127 82 76 89 91 66 156 -6 17 -8 39 -5 48 6 14 17 6 60 -40 29 -31 58 -57
64 -57z m-2018 -85 c10 -12 10 -15 -4 -15 -9 0 -16 7 -16 15 0 8 2 15 4 15 2
0 9 -7 16 -15z m50 -84 c22 -18 47 -45 55 -61 8 -16 26 -40 40 -54 14 -14 25
-32 25 -40 0 -9 13 -46 29 -83 30 -69 85 -264 120 -423 9 -43 9 -42 5 20 -2
36 -7 82 -10 104 -4 21 -7 55 -9 75 -10 135 -27 226 -50 265 -14 24 -25 45
-25 48 0 3 34 -28 75 -69 41 -41 72 -79 69 -84 -3 -5 0 -17 6 -26 10 -16 11
-15 7 5 -7 30 7 28 29 -5 9 -16 26 -34 35 -41 24 -17 83 -106 108 -163 11 -25
30 -54 41 -64 11 -10 18 -25 15 -33 -6 -16 13 -44 25 -37 5 3 6 -4 3 -16 -3
-12 2 -31 14 -47 11 -15 25 -44 32 -64 7 -21 17 -38 22 -38 6 0 8 3 5 8 -2 4
-7 34 -10 67 -5 52 -4 58 8 42 7 -9 16 -36 20 -58 4 -27 13 -43 24 -46 15 -3
52 -72 52 -96 0 -5 20 -51 45 -103 65 -136 91 -287 89 -524 -1 -96 -7 -202
-14 -235 -7 -33 -13 -91 -15 -130 -4 -105 -40 -176 -194 -377 -35 -46 -72 -90
-81 -98 -19 -17 -134 -149 -194 -223 l-39 -48 -100 193 c-111 213 -144 315
-140 423 2 33 4 104 5 158 l3 98 46 42 c49 44 91 104 103 147 l7 25 -20 -25
c-11 -14 -21 -29 -21 -35 0 -5 -27 -39 -59 -75 -57 -63 -59 -64 -85 -51 -19
10 -25 20 -20 33 4 12 1 18 -8 16 -7 -2 -12 4 -11 12 3 15 -56 60 -79 60 -28
0 -40 20 -45 72 -7 79 8 120 86 240 92 141 144 252 138 292 -12 87 -72 278
-107 342 -24 44 -42 91 -46 125 -4 32 -22 84 -46 129 -31 61 -40 92 -49 168
-8 67 -8 100 -1 117 12 25 5 92 -10 112 -7 8 1 25 24 54 21 27 34 36 36 26 2
-8 21 -29 42 -46z m980 -255 c0 -11 -19 -15 -25 -6 -3 5 1 10 9 10 9 0 16 -2
16 -4z m-5109 -169 c-13 -13 -15 1 -4 30 7 17 8 17 11 -1 2 -10 -1 -23 -7 -29z
m16 -74 c-3 -10 -5 -2 -5 17 0 19 2 27 5 18 2 -10 2 -26 0 -35z m5089 -859
c23 -88 26 -119 27 -269 1 -252 -19 -390 -75 -515 -16 -35 -31 -80 -33 -98 -5
-37 -16 -58 -64 -112 -31 -35 -44 -23 -16 14 8 11 15 34 15 50 0 34 29 140 54
197 8 20 27 87 41 150 46 204 45 416 -6 669 -10 52 -19 100 -18 105 1 25 51
-102 75 -191z m225 -728 c-8 -10 -7 -17 4 -26 17 -14 21 -50 5 -50 -5 0 -14 9
-20 21 -7 11 -14 18 -17 15 -9 -9 19 -56 29 -50 4 3 8 -5 8 -17 0 -21 -1 -21
-25 5 -29 31 -31 54 -10 82 8 10 15 28 15 40 0 29 14 40 18 14 2 -11 -1 -27
-7 -34z m69 -202 c23 -143 24 -178 6 -193 -8 -7 -17 -23 -21 -38 -3 -14 -13
-32 -21 -40 -8 -9 -13 -22 -10 -29 3 -8 1 -14 -4 -14 -6 0 -10 5 -10 11 0 5
-14 23 -31 39 l-31 28 25 79 c14 43 33 116 42 163 20 103 25 123 32 117 2 -3
13 -58 23 -123z m-335 -16 c-39 -78 -98 -159 -170 -232 -34 -35 -69 -86 -59
-86 3 0 20 15 38 33 17 19 49 47 70 63 22 16 51 40 65 54 17 17 26 20 29 12 8
-25 -277 -322 -309 -322 -5 0 -9 -4 -9 -9 0 -22 69 18 118 67 52 53 66 58 35
12 -32 -49 -79 -92 -125 -116 -27 -13 -48 -30 -48 -38 0 -14 -81 -87 -132
-119 l-28 -17 0 82 1 83 85 90 c48 50 105 119 129 155 29 44 71 88 130 135 51
41 111 101 142 143 31 40 58 71 60 68 3 -2 -7 -28 -22 -58z m185 25 c0 -10 -7
-40 -16 -68 -8 -29 -15 -88 -15 -140 0 -67 -5 -100 -19 -130 -10 -22 -14 -42
-9 -45 5 -3 3 -22 -3 -44 -9 -29 -16 -36 -30 -33 -22 6 -34 -15 -36 -63 -3
-46 -25 -74 -108 -138 -102 -78 -104 -80 -104 -99 0 -13 3 -14 12 -5 7 7 17
12 23 12 5 0 1 -7 -9 -15 -10 -8 -23 -12 -28 -9 -12 8 -44 -14 -103 -70 -28
-26 -78 -61 -112 -78 -60 -29 -79 -48 -49 -48 8 0 18 5 21 10 8 13 25 13 25
-1 0 -6 -9 -13 -20 -16 -11 -3 -17 -9 -14 -14 3 -5 0 -9 -5 -9 -6 0 -11 -7
-11 -15 0 -21 -30 -31 -41 -14 -5 8 -9 29 -9 47 0 30 4 34 66 62 62 29 122 75
111 86 -3 3 -43 -15 -89 -40 -47 -25 -89 -46 -95 -46 -6 0 -14 17 -18 37 -8
42 -8 41 104 121 34 24 61 51 61 60 0 8 3 12 7 9 10 -11 274 261 319 329 22
32 46 75 54 94 7 19 23 53 36 75 21 38 65 145 79 193 8 26 25 30 25 5z m-144
-60 c-11 -11 -17 4 -9 23 7 18 8 18 11 1 2 -10 1 -21 -2 -24z m-32 -97 c-6
-16 -24 -23 -24 -8 0 10 22 33 27 28 2 -2 1 -11 -3 -20z m367 -226 c37 -21 19
-70 -26 -70 -21 0 -28 33 -10 46 15 11 15 13 -2 23 -17 10 -17 10 0 11 10 0
27 -5 38 -10z m-68 -61 c4 -15 -1 -23 -21 -30 -14 -5 -31 -8 -39 -5 -21 8 -15
36 10 46 34 14 44 12 50 -11z m-93 -9 c0 -5 -2 -10 -4 -10 -3 0 -8 5 -11 10
-3 6 -1 10 4 10 6 0 11 -4 11 -10z m-274 -257 c-10 -10 -19 5 -10 18 6 11 8
11 12 0 2 -7 1 -15 -2 -18z m-2076 -54 c0 -6 -20 -35 -45 -66 -47 -57 -52 -69
-34 -75 16 -5 0 -35 -23 -41 -16 -5 -18 -3 -9 6 20 20 12 26 -18 11 -16 -8
-32 -22 -35 -30 -3 -9 -13 -14 -20 -11 -16 6 -30 -18 -27 -45 1 -11 -4 -18
-15 -18 -10 0 -27 -8 -38 -17 -21 -18 -21 -18 -2 5 17 19 17 22 3 22 -19 0
-20 4 -11 38 4 12 12 22 20 22 17 0 46 54 38 73 -3 10 3 17 19 21 15 3 24 12
23 23 0 10 8 19 19 21 11 2 24 10 28 18 4 8 13 14 20 14 7 1 30 9 52 20 46 22
55 24 55 9z"/>
<path d="M4421 3484 c0 -11 3 -14 6 -6 3 7 2 16 -1 19 -3 4 -6 -2 -5 -13z"/>
<path d="M5042 3045 c0 -16 2 -22 5 -12 2 9 2 23 0 30 -3 6 -5 -1 -5 -18z"/>
<path d="M5027 2931 c-4 -17 -3 -21 5 -13 5 5 8 16 6 23 -3 8 -7 3 -11 -10z"/>
<path d="M3375 6141 c-3 -5 -19 -12 -35 -16 -17 -4 -30 -12 -30 -20 0 -7 -3
-27 -6 -44 -8 -41 10 -41 32 1 9 17 30 44 47 60 23 20 27 28 15 28 -9 0 -19
-4 -23 -9z"/>
<path d="M2978 5860 c-69 -73 -77 -118 -11 -60 31 27 63 76 63 96 0 12 -19 -1
-52 -36z"/>
<path d="M2376 5771 c-4 -5 -7 -28 -8 -51 -1 -25 -7 -44 -17 -50 -14 -8 -14
-11 -2 -19 10 -6 24 -5 43 5 29 15 29 18 12 102 -4 23 -18 29 -28 13z"/>
<path d="M3207 5733 c-3 -5 -8 -31 -12 -60 -5 -40 -11 -53 -28 -59 -19 -6 -16
-8 15 -11 42 -5 89 14 68 27 -8 5 -10 17 -7 31 3 12 -1 35 -9 51 -15 29 -20
33 -27 21z"/>
<path d="M2411 5543 c-8 -16 -18 -36 -23 -47 -7 -14 -5 -23 10 -38 19 -20 20
-20 33 9 14 29 14 103 0 103 -4 0 -13 -12 -20 -27z"/>
<path d="M2596 5464 c-23 -22 -10 -37 14 -16 11 9 20 20 20 24 0 13 -18 9 -34
-8z"/>
<path d="M2345 5379 c-4 -6 -5 -13 -2 -16 7 -7 27 6 27 18 0 12 -17 12 -25 -2z"/>
<path d="M3520 5369 c0 -5 5 -7 10 -4 6 3 10 8 10 11 0 2 -4 4 -10 4 -5 0 -10
-5 -10 -11z"/>
<path d="M2238 5327 c-8 -12 -21 -39 -29 -60 -7 -22 -22 -43 -31 -48 -20 -11
-25 -59 -5 -59 7 0 24 11 39 25 15 14 31 25 36 25 5 0 15 7 22 15 10 12 9 15
-5 15 -12 0 -15 5 -10 18 24 62 12 114 -17 69z"/>
<path d="M2675 5254 c-30 -27 -43 -44 -33 -44 25 0 48 11 48 23 0 6 11 21 26
33 14 12 21 24 17 27 -4 3 -30 -15 -58 -39z"/>
<path d="M3335 5196 c-18 -13 -18 -14 8 -9 15 3 30 9 33 14 8 14 -20 10 -41
-5z"/>
<path d="M1208 5195 c-3 -4 -4 -36 -2 -73 2 -51 0 -70 -13 -84 -21 -23 -12
-32 26 -23 52 11 106 65 65 65 -12 0 -15 6 -10 25 4 14 3 25 -2 25 -4 0 -12
15 -17 32 -9 31 -33 47 -47 33z"/>
<path d="M1271 5174 c0 -11 3 -14 6 -6 3 7 2 16 -1 19 -3 4 -6 -2 -5 -13z"/>
<path d="M1962 5158 c-7 -7 -12 -16 -12 -22 0 -5 -11 -24 -25 -42 -43 -57 -23
-91 23 -39 12 14 25 25 30 25 4 0 9 20 10 45 2 46 -5 54 -26 33z"/>
<path d="M735 5150 c-3 -5 -1 -10 4 -10 6 0 11 5 11 10 0 6 -2 10 -4 10 -3 0
-8 -4 -11 -10z"/>
<path d="M1610 5115 c-5 -14 -14 -25 -20 -25 -5 0 -10 -4 -10 -10 0 -5 7 -10
15 -10 9 0 20 -12 26 -27 11 -30 21 -23 37 24 9 26 7 34 -9 52 -25 27 -27 26
-39 -4z"/>
<path d="M3111 4967 c-21 -23 -28 -47 -13 -47 13 0 53 58 43 64 -4 3 -18 -5
-30 -17z"/>
<path d="M1311 4886 c-6 -25 -11 -54 -11 -65 0 -10 -5 -21 -12 -23 -18 -6 30
-50 50 -46 9 2 19 14 20 28 2 14 8 29 13 35 13 14 11 25 -5 25 -10 0 -16 13
-18 42 -4 56 -23 59 -37 4z"/>
<path d="M1492 4898 c2 -13 8 -23 13 -23 6 0 11 10 13 23 2 15 -2 22 -13 22
-11 0 -15 -7 -13 -22z"/>
<path d="M2285 4801 c-9 -40 -2 -49 12 -18 6 13 8 30 3 37 -5 8 -10 2 -15 -19z"/>
<path d="M1903 4740 c2 -25 5 -29 22 -24 28 9 28 9 13 33 -19 31 -38 26 -35
-9z"/>
<path d="M2390 4684 c-6 -14 -10 -35 -10 -48 0 -12 -5 -27 -12 -34 -16 -16 9
-16 48 -2 21 8 24 14 16 22 -7 7 -12 29 -12 50 0 44 -16 50 -30 12z"/>
<path d="M1268 4655 c-29 -38 -21 -59 12 -32 14 12 20 40 10 50 -3 3 -13 -5
-22 -18z"/>
<path d="M1617 4653 c-10 -9 -8 -43 2 -43 5 0 14 7 21 15 17 21 -4 48 -23 28z"/>
<path d="M2330 4534 c0 -8 5 -12 10 -9 6 3 10 10 10 16 0 5 -4 9 -10 9 -5 0
-10 -7 -10 -16z"/>
<path d="M2070 4406 c0 -19 -3 -41 -6 -50 -4 -11 0 -16 14 -16 28 0 30 8 20
58 -11 50 -28 56 -28 8z"/>
<path d="M1297 4173 c-3 -5 -8 -23 -12 -41 -3 -18 -15 -36 -24 -42 -13 -6 -17
-17 -14 -35 7 -32 14 -32 44 3 17 19 25 41 27 75 2 41 -8 62 -21 40z"/>
<path d="M1585 4120 c-3 -5 1 -10 9 -10 9 0 16 5 16 10 0 6 -4 10 -9 10 -6 0
-13 -4 -16 -10z"/>
<path d="M2216 4028 c-8 -13 -22 -39 -30 -60 -9 -20 -21 -38 -27 -40 -7 -2
-14 -14 -16 -26 -3 -26 18 -30 38 -6 7 8 26 22 42 31 23 11 27 17 16 23 -11 7
-11 15 -1 43 21 58 7 80 -22 35z"/>
<path d="M1777 4023 c-12 -12 -7 -22 8 -17 8 4 15 10 15 15 0 11 -14 12 -23 2z"/>
<path d="M1771 3974 c0 -11 3 -14 6 -6 3 7 2 16 -1 19 -3 4 -6 -2 -5 -13z"/>
<path d="M1932 3858 c-9 -17 -25 -39 -34 -50 -10 -10 -18 -25 -18 -33 0 -11 9
-8 36 10 30 21 37 32 40 65 5 48 -1 50 -24 8z"/>
</g>
</svg>
